# Blender v2.80 (sub 75) OBJ File: 'player.blend'
# www.blender.org
mtllib r_arm.mtl
o r_arm.001_Sphere.006
v 0.057991 -0.557342 0.729978
v 0.025336 -0.525643 0.731018
v 0.073217 -0.380362 0.682564
v 0.048714 -0.532485 0.679405
v 0.124115 -0.387452 0.656009
v 0.179239 -0.373591 0.730191
v 0.206657 -0.519674 0.693216
v 0.209270 -0.520724 0.760991
v 0.092151 -0.359614 0.726708
v 0.197620 -0.424947 0.799000
v 0.149756 -0.564493 0.773915
v 0.083136 -0.402295 0.814961
v 0.045091 -0.428385 0.807262
v 0.075022 -0.559493 0.773520
v 0.008920 -0.479674 0.745638
v 0.021666 -0.414919 0.750867
v 0.017509 -0.462095 0.688881
v 0.033058 -0.417161 0.682184
v 0.050025 -0.379881 0.729675
v 0.068559 -0.419054 0.647390
v 0.093414 -0.569933 0.703892
v 0.054980 -0.482251 0.643418
v 0.108977 -0.430031 0.628642
v 0.098067 -0.546599 0.660364
v 0.176291 -0.392755 0.676324
v 0.153258 -0.459448 0.629926
v 0.152401 -0.551569 0.673782
v 0.130155 -0.507290 0.630797
v 0.177776 -0.505686 0.650378
v 0.214766 -0.459689 0.678541
v 0.186417 -0.426268 0.655855
v 0.185287 -0.554667 0.728369
v 0.209020 -0.401778 0.727839
v 0.228112 -0.464148 0.749285
v 0.200739 -0.493952 0.800797
v 0.161565 -0.380666 0.787227
v 0.161907 -0.457844 0.835322
v 0.160030 -0.536928 0.808261
v 0.140968 -0.402328 0.820617
v 0.127536 -0.367464 0.779807
v 0.115019 -0.495204 0.839784
v 0.104280 -0.445204 0.840100
v 0.100887 -0.540574 0.812569
v 0.045107 -0.513398 0.802750
v 0.066978 -0.471428 0.829542
v 0.064856 -0.377628 0.769032
v 0.106201 -0.573074 0.751118
v 0.022309 -0.446505 0.781544
v 0.126397 -0.362421 0.695780
v 0.138624 -0.358449 0.741497
v 0.136132 -0.573878 0.718946
v 0.106154 -0.364846 0.778053
v 0.115970 -0.397021 0.743804
v 0.111569 -0.434050 0.672397
v 0.111798 -0.500748 0.676237
v 0.115962 -0.530662 0.743056
v 0.119448 -0.466399 0.798217
v 0.034204 -0.425033 0.794034
v 0.030714 -0.390867 0.737712
v -0.020704 -0.414084 0.689307
v -0.055871 -0.462033 0.686267
v 0.003923 -0.512868 0.707430
v 0.015888 -0.510694 0.776026
v -0.081711 -0.436312 0.815742
v -0.066040 -0.395490 0.813871
v -0.034173 -0.377418 0.782489
v -0.044233 -0.373234 0.717851
v -0.077260 -0.490085 0.734619
v -0.065962 -0.485162 0.786939
v -0.105497 -0.376091 0.697394
v -0.150978 -0.376702 0.709483
v -0.138560 -0.442229 0.735783
v -0.128211 -0.442525 0.791206
v -0.070127 -0.329407 0.726135
v -0.175829 -0.384647 0.774854
v -0.132448 -0.359407 0.828889
v -0.060621 -0.332370 0.791706
v -0.131575 -0.254849 0.698840
v -0.187313 -0.301891 0.751845
v -0.065543 -0.176484 0.801021
v -0.053375 -0.245935 0.765985
v -0.069100 -0.250541 0.715846
v -0.132649 -0.078488 0.682406
v -0.174897 -0.286503 0.808165
v -0.170559 -0.188987 0.760590
v -0.134697 -0.203082 0.815940
v -0.014203 -0.096830 0.668051
v -0.065127 -0.148406 0.662959
v -0.107818 -0.132800 0.660881
v -0.068120 -0.073702 0.767479
v -0.004760 -0.075099 0.705402
v -0.108274 -0.074726 0.630032
v -0.129454 -0.085303 0.750495
v -0.013111 -0.004275 0.687142
v -0.046009 -0.060927 0.584467
v -0.004648 0.049206 0.614505
v 0.013973 0.004787 0.583892
v -0.084527 -0.034548 0.559868
v -0.116568 0.008571 0.582805
v -0.099336 0.008941 0.676974
v -0.058061 0.047683 0.655906
v 0.011185 0.052494 0.505197
v -0.035949 -0.009709 0.486221
v -0.111115 0.015987 0.504658
v -0.106681 0.085596 0.531213
v -0.030675 0.110974 0.532605
vt 0.776188 0.647155
vt 0.738412 0.784941
vt 0.662469 0.652431
vt 0.682584 0.511615
vt 0.765008 0.459070
vt 0.748687 0.320818
vt 0.739665 0.190959
vt 0.654403 0.297018
vt 0.720862 0.920339
vt 0.616979 0.783529
vt 0.625671 0.112954
vt 0.596160 0.451846
vt 0.473464 0.880030
vt 0.578020 0.639122
vt 0.534667 0.250078
vt 0.486889 0.748845
vt 0.514191 0.593143
vt 0.482154 0.381397
vt 0.417278 0.225122
vt 0.365036 0.078381
vt 0.626303 0.103242
vt 0.448513 0.514959
vt 0.395744 0.381428
vt 0.375728 0.733107
vt 0.320283 0.348827
vt 0.384880 0.612807
vt 0.329771 0.506065
vt 0.201662 0.930229
vt 0.393296 0.963357
vt 0.390625 1.000000
vt 0.269756 0.219081
vt 0.256297 0.814087
vt 0.261501 0.690569
vt 0.226489 0.503505
vt 0.108686 0.772867
vt 0.201205 0.330584
vt 0.086221 0.300292
vt 0.141770 0.414443
vt 0.033211 0.854279
vt 0.140874 0.615000
vt 0.041139 0.688841
vt 0.064617 0.526726
vt 0.101981 0.159637
vt 0.033013 0.064954
vt 0.222368 0.063341
vt 0.007368 0.793215
vt 0.011465 0.437694
vt 0.001808 0.247530
vt 0.995445 0.700066
vt 0.923716 0.851597
vt 0.929731 0.696403
vt 0.964818 0.262466
vt 0.868767 0.180441
vt 0.995815 0.142384
vt 0.955797 0.963358
vt 0.953126 1.000000
vt 0.983941 0.410529
vt 0.870674 0.362420
vt 0.921571 0.482167
vt 0.876540 0.613647
vt 0.977626 0.561593
vt 0.841332 0.797078
vt 0.825206 0.554698
vt 0.876113 0.045800
vt 0.773438 0.028646
vt 0.765625 0.000000
vt 0.003450 0.564143
vt 0.987615 0.948090
vt 0.981106 0.883075
vt 0.912340 0.066003
vt 0.000000 0.000000
vt 0.000000 0.000000
vt 0.000000 0.000000
vt 0.000000 0.000000
vt 0.000000 0.000000
vt 0.000000 0.000000
vt 0.000000 0.000000
vt 0.000000 0.000000
vt 0.000000 0.000000
vt 0.000000 0.000000
vt 0.000000 0.000000
vt 0.000000 0.000000
vt 0.000000 0.000000
vt 0.000000 0.000000
vt 0.000000 0.000000
vt 0.000000 0.000000
vt 0.000000 0.000000
vt 0.000000 0.000000
vt 0.000000 0.000000
vt 0.000000 0.000000
vt 0.000000 0.000000
vt 0.000000 0.000000
vt 0.000000 0.000000
vt 0.000000 0.000000
vt 0.000000 0.000000
vt 0.000000 0.000000
vt 0.000000 0.000000
vt 0.000000 0.000000
vt 0.000000 0.000000
vt 0.000000 0.000000
vt 0.000000 0.000000
vt 0.000000 0.000000
vt 0.000000 0.000000
vt 0.000000 0.000000
vt 0.000000 0.000000
vt 0.000000 0.000000
vt 0.000000 0.000000
vt 0.000000 0.000000
vt 0.000000 0.000000
vt 0.000000 0.000000
vt 0.000000 0.000000
vt 0.000000 0.000000
vt 0.000000 0.000000
vt 0.000000 0.000000
vt 0.000000 0.000000
vt 0.000000 0.000000
vt 0.000000 0.000000
vt 0.000000 0.000000
vt 0.000000 0.000000
vt 0.000000 0.000000
vt 0.000000 0.000000
vt 0.000000 0.000000
vt 0.000000 0.000000
vt 0.000000 0.000000
vn -0.8114 0.5642 -0.1530
vn -0.9393 0.3004 -0.1656
vn -0.9382 -0.2639 -0.2237
vn -0.6834 -0.6969 -0.2172
vn -0.8728 -0.3398 -0.3503
vn -0.4353 0.8722 -0.2232
vn -0.5092 -0.8057 -0.3026
vn -0.7284 0.1525 -0.6680
vn -0.2260 0.9153 -0.3333
vn -0.5437 0.5994 -0.5874
vn -0.4322 -0.4889 -0.7577
vn -0.2078 0.5801 -0.7876
vn -0.3851 0.1401 -0.9122
vn -0.1542 0.8402 -0.5199
vn -0.1908 -0.0796 -0.9784
vn 0.1231 -0.6587 -0.7423
vn 0.0821 -0.8820 -0.4640
vn 0.3784 -0.1992 -0.9040
vn 0.2850 0.8038 -0.5222
vn 0.5582 -0.6007 -0.5724
vn 0.6200 -0.0066 -0.7845
vn 0.0028 0.9962 -0.0873
vn 0.5662 -0.7301 -0.3826
vn 0.3960 -0.8719 -0.2880
vn 0.3045 0.9385 -0.1630
vn 0.7634 -0.2490 -0.5960
vn 0.7749 0.4831 -0.4077
vn 0.8149 0.4205 -0.3989
vn 0.9575 0.2361 -0.1657
vn 0.3960 0.8882 0.2329
vn 0.5762 -0.7402 0.3465
vn 0.6674 -0.5438 0.5088
vn 0.2882 0.9102 0.2976
vn 0.4816 0.5693 0.6664
vn 0.4592 0.3852 0.8004
vn 0.1216 -0.9830 0.1377
vn 0.4657 -0.2964 0.8338
vn -0.0172 0.4559 0.8899
vn 0.1283 0.7940 0.5942
vn 0.0941 -0.5335 0.8405
vn -0.0670 0.7210 0.6897
vn -0.0615 -0.8817 0.4679
vn -0.0624 0.9910 0.1180
vn -0.3450 -0.4015 0.8484
vn -0.3617 -0.3604 0.8598
vn -0.3907 0.3144 0.8652
vn -0.3542 0.7578 0.5480
vn -0.5440 0.6296 0.5547
vn -0.6872 0.5884 0.4260
vn -0.8728 -0.1503 0.4643
vn -0.6999 -0.6466 0.3033
vn -0.8613 -0.4051 0.3066
vn -0.6742 -0.7021 0.2290
vn -0.9644 0.1738 0.1991
vn -0.4248 0.8988 0.1086
vn -0.3194 -0.9473 0.0235
vn -0.0759 -0.9961 -0.0457
vn -0.9762 0.1991 -0.0861
vn -0.7980 -0.2820 -0.5326
vn -0.6381 0.6997 -0.3213
vn -0.6819 0.1909 -0.7061
vn -0.2704 0.6652 -0.6959
vn -0.4047 -0.7873 -0.4653
vn -0.2840 -0.4174 -0.8632
vn 0.0252 -0.8999 -0.4354
vn 0.0128 -0.0244 -0.9996
vn 0.2770 0.4479 -0.8501
vn 0.2875 0.3947 -0.8727
vn 0.3489 0.5630 -0.7492
vn 0.3295 -0.5672 -0.7548
vn 0.6199 -0.0183 -0.7844
vn 0.3945 0.8587 -0.3271
vn 0.6465 0.7070 -0.2869
vn 0.8340 -0.5502 -0.0407
vn 0.3510 -0.9336 0.0724
vn 0.9649 -0.1777 -0.1932
vn 0.9453 -0.3234 -0.0415
vn 0.8941 0.3636 0.2616
vn 0.8691 0.0521 0.4919
vn 0.9082 -0.2302 0.3494
vn 0.6419 -0.6802 0.3540
vn 0.6892 0.0500 0.7229
vn 0.3335 -0.3123 0.8895
vn 0.0929 -0.7899 0.6062
vn 0.1448 0.3040 0.9416
vn 0.0852 0.0120 0.9963
vn 0.0969 0.9622 0.2545
vn -0.0856 0.4719 0.8775
vn -0.0619 -0.8894 0.4530
vn -0.2349 -0.0566 0.9704
vn -0.4175 0.2412 0.8761
vn -0.7463 -0.0354 0.6647
vn -0.4316 -0.6659 0.6085
vn -0.7353 -0.0361 0.6768
vn -0.3270 0.9270 0.1837
vn -0.6889 0.6907 0.2201
vn -0.8073 0.4026 0.4315
vn -0.3438 -0.9349 0.0883
vn 0.6830 0.6609 0.3108
vn 0.2214 0.5801 0.7838
vn 0.1828 -0.0694 0.9807
vn 0.1559 0.9727 0.1719
vn -0.0703 -0.5626 -0.8237
vn -0.3031 -0.3434 -0.8889
vn -0.0067 0.4551 -0.8904
vn 0.0085 -0.9799 0.1991
vn -0.2298 -0.8795 -0.4168
vn -0.1039 -0.8340 0.5419
vn 0.3356 0.1169 0.9347
vn -0.0964 -0.3196 0.9426
vn 0.5884 0.6809 0.4360
vn 0.2153 0.9748 -0.0577
vn 0.0664 0.4447 -0.8932
vn 0.4480 0.7082 -0.5456
vn -0.4756 -0.8553 -0.2057
vn -0.7260 -0.6147 -0.3081
vn -0.2687 -0.1354 0.9536
vn 0.9735 0.1361 0.1834
vn -0.6008 -0.6169 0.5084
vn -0.9210 -0.3421 0.1863
vn 0.0962 -0.1525 -0.9836
vn 0.7617 0.1997 -0.6163
vn -0.0106 0.1233 -0.9923
vn -0.9770 -0.0170 -0.2124
vn -0.6470 -0.1899 -0.7385
vn -0.7695 0.0574 0.6361
vn 0.5459 0.1301 0.8277
vn 0.9901 -0.1202 0.0723
vn 0.6771 -0.3040 -0.6702
vn -0.3274 0.2694 0.9056
vn -0.9430 0.2733 0.1897
vn 0.1901 0.4927 0.8492
vn 0.8444 -0.4499 -0.2908
vn 0.2470 -0.4991 -0.8306
vn -0.6824 0.5119 0.5217
vn -0.7047 -0.4105 -0.5786
vn -0.5202 -0.3126 -0.7948
vn -0.9741 0.0841 -0.2097
vn 0.9369 -0.0071 0.3494
vn 0.6766 0.4638 0.5719
vn 0.0007 -0.8350 -0.5502
vn 0.9908 -0.1243 -0.0540
vn -0.5389 -0.7099 -0.4534
vn -0.9967 -0.0496 -0.0644
vn 0.7305 0.5682 0.3787
vn 0.3430 0.8686 0.3575
vn -0.0462 0.8106 0.5838
vn 0.9958 0.0293 -0.0871
vn 0.3133 -0.8025 -0.5077
vn -0.8533 -0.4398 -0.2802
vn -0.7522 0.6071 0.2562
vn -0.6415 0.6063 0.4700
vn -0.3045 -0.7957 0.5235
usemtl player
s off
f 16/1/1 19/2/1 18/3/1
f 16/1/2 18/3/2 17/4/2
f 15/5/3 17/4/3 2/6/3
f 1/7/4 2/6/4 4/8/4
f 2/6/5 17/4/5 4/8/5
f 19/2/6 9/9/6 3/10/6
f 1/7/7 4/8/7 21/11/7
f 17/4/8 18/3/8 22/12/8
f 9/9/9 49/13/9 3/10/9
f 3/10/10 20/14/10 18/3/10
f 4/8/11 22/12/11 24/15/11
f 5/16/12 23/17/12 20/14/12
f 20/14/13 23/17/13 22/12/13
f 49/13/14 5/16/14 3/10/14
f 22/12/15 23/17/15 28/18/15
f 28/18/16 27/19/16 24/15/16
f 24/15/17 51/20/17 21/21/17
f 26/22/18 29/23/18 28/18/18
f 5/16/19 49/13/19 25/24/19
f 29/23/20 7/25/20 27/19/20
f 31/26/21 30/27/21 26/22/21
f 50/28/22 49/29/22 9/30/22
f 27/19/23 7/25/23 32/31/23
f 27/19/24 32/31/24 51/20/24
f 50/28/25 6/32/25 49/13/25
f 29/23/26 30/27/26 7/25/26
f 25/24/27 33/33/27 31/26/27
f 31/26/28 33/33/28 30/27/28
f 33/33/29 34/34/29 30/27/29
f 6/32/30 50/28/30 36/35/30
f 8/36/31 38/37/31 32/31/31
f 8/36/32 35/38/32 38/37/32
f 36/35/33 50/28/33 40/39/33
f 10/40/34 36/35/34 39/41/34
f 39/41/35 37/42/35 10/40/35
f 11/43/36 47/44/36 51/45/36
f 35/38/37 37/42/37 38/37/37
f 36/35/38 40/39/38 52/46/38
f 36/35/39 52/46/39 39/41/39
f 41/47/40 43/48/40 38/37/40
f 39/49/41 52/50/41 12/51/41
f 43/52/42 14/53/42 11/54/42
f 52/50/43 50/55/43 9/56/43
f 41/57/44 44/58/44 43/52/44
f 41/57/45 45/59/45 44/58/45
f 12/51/46 13/60/46 42/61/46
f 52/50/47 46/62/47 12/51/47
f 12/51/48 46/62/48 13/60/48
f 13/60/49 46/62/49 16/1/49
f 44/58/50 48/63/50 15/5/50
f 44/58/51 2/6/51 14/53/51
f 44/58/52 15/5/52 2/6/52
f 14/53/53 2/6/53 1/7/53
f 48/63/54 16/1/54 15/5/54
f 46/62/55 9/9/55 19/2/55
f 47/64/56 1/7/56 21/11/56
f 47/65/57 21/11/57 51/66/57
f 15/5/58 16/1/58 17/4/58
f 17/4/59 22/12/59 4/8/59
f 18/3/60 19/2/60 3/10/60
f 18/3/61 20/14/61 22/12/61
f 20/14/62 3/10/62 5/16/62
f 21/11/63 4/8/63 24/15/63
f 24/15/64 22/12/64 28/18/64
f 24/15/65 27/19/65 51/20/65
f 28/18/66 23/17/66 26/22/66
f 23/17/67 5/16/67 31/26/67
f 26/22/68 23/17/68 31/26/68
f 5/16/69 25/24/69 31/26/69
f 27/19/70 28/18/70 29/23/70
f 29/23/71 26/22/71 30/27/71
f 49/13/72 6/32/72 25/24/72
f 25/24/73 6/32/73 33/33/73
f 7/25/74 8/36/74 32/31/74
f 32/31/75 11/43/75 51/20/75
f 7/25/76 30/27/76 34/34/76
f 7/25/77 34/34/77 8/36/77
f 34/34/78 33/33/78 10/40/78
f 34/34/79 10/40/79 35/38/79
f 8/36/80 34/34/80 35/38/80
f 32/31/81 38/37/81 11/43/81
f 35/38/82 10/40/82 37/42/82
f 38/37/83 37/42/83 41/47/83
f 11/43/84 38/37/84 43/48/84
f 37/42/85 39/41/85 42/67/85
f 41/47/86 37/42/86 42/67/86
f 50/68/87 52/50/87 40/69/87
f 42/61/88 39/49/88 12/51/88
f 11/54/89 14/53/89 47/70/89
f 41/57/90 42/61/90 45/59/90
f 42/61/91 13/60/91 45/59/91
f 45/59/92 13/60/92 44/58/92
f 14/53/93 43/52/93 44/58/93
f 13/60/94 48/63/94 44/58/94
f 46/62/95 52/50/95 9/9/95
f 16/1/96 46/62/96 19/2/96
f 13/60/97 16/1/97 48/63/97
f 47/64/98 14/53/98 1/7/98
f 10/40/99 33/33/99 6/32/99 36/35/99
s 1
f 58/71/100 57/72/101 53/73/102
f 55/74/103 61/75/104 54/76/105
f 56/77/106 62/78/107 55/74/103
f 63/79/108 56/77/106 57/72/101
f 65/80/109 64/81/110 58/71/100
f 66/82/111 58/71/100 59/83/112
f 60/84/113 67/85/114 59/83/112
f 68/86/115 72/87/116 61/75/104
f 65/80/109 76/88/117 64/81/110
f 77/89/118 66/82/111 67/85/114
f 73/90/119 75/91/120 72/87/116
f 64/81/110 76/88/117 73/90/119
f 78/92/121 74/93/122 70/94/123
f 79/95/124 71/96/125 75/91/120
f 76/88/117 84/97/126 75/91/120
f 65/80/109 80/98/127 76/88/117
f 77/89/118 80/98/127 65/80/109
f 81/99/128 77/89/118 74/93/122
f 82/100/129 74/93/122 78/92/121
f 76/88/117 86/101/130 84/97/126
f 84/97/126 85/102/131 79/95/124
f 80/98/127 90/103/132 86/101/130
f 87/104/133 81/99/128 82/100/129
f 88/105/134 82/100/129 78/92/121
f 86/101/130 93/106/135 85/102/131
f 92/107/136 89/108/137 83/109/138
f 91/110/139 94/111/140 90/103/132
f 95/112/141 87/104/133 88/105/134
f 95/112/141 88/105/134 89/108/137
f 91/110/139 97/113/142 94/111/140
f 97/113/142 91/110/139 87/104/133
f 98/114/143 95/112/141 92/107/136
f 99/115/144 92/107/136 83/109/138
f 93/106/135 99/115/144 83/109/138
f 96/116/145 106/117/146 101/118/147
f 97/113/142 102/119/148 96/116/145
f 87/104/133 103/120/149 97/113/142
f 95/112/141 103/120/149 87/104/133
f 103/120/149 95/112/141 98/114/143
f 104/121/150 98/114/143 99/115/144
f 105/122/151 99/115/144 100/123/152
f 105/122/151 100/123/152 101/118/147
f 59/83/112 53/73/102 54/76/105 60/84/113
f 58/71/100 64/81/110 57/72/101
f 59/83/112 58/71/100 53/73/102
f 62/78/107 63/79/108 69/124/153 68/86/115
f 54/76/105 61/75/104 60/84/113
f 55/74/103 62/78/107 61/75/104
f 63/79/108 62/78/107 56/77/106
f 64/81/110 63/79/108 57/72/101
f 66/82/111 65/80/109 58/71/100
f 67/85/114 66/82/111 59/83/112
f 61/75/104 70/94/123 60/84/113
f 62/78/107 68/86/115 61/75/104
f 72/87/116 68/86/115 69/124/153 73/90/119
f 64/81/110 69/124/153 63/79/108
f 60/84/113 70/94/123 67/85/114
f 61/75/104 71/96/125 70/94/123
f 61/75/104 72/87/116 71/96/125
f 100/123/152 93/106/135 90/103/132 101/118/147
f 64/81/110 73/90/119 69/124/153
f 66/82/111 77/89/118 65/80/109
f 74/93/122 77/89/118 67/85/114
f 70/94/123 74/93/122 67/85/114
f 72/87/116 75/91/120 71/96/125
f 73/90/119 76/88/117 75/91/120
f 71/96/125 78/92/121 70/94/123
f 75/91/120 84/97/126 79/95/124
f 76/88/117 80/98/127 86/101/130
f 77/89/118 81/99/128 80/98/127
f 82/100/129 81/99/128 74/93/122
f 83/109/138 78/92/121 71/96/125
f 79/95/124 83/109/138 71/96/125
f 81/99/128 91/110/139 80/98/127
f 85/102/131 83/109/138 79/95/124
f 84/97/126 86/101/130 85/102/131
f 88/105/134 87/104/133 82/100/129
f 89/108/137 88/105/134 78/92/121
f 83/109/138 89/108/137 78/92/121
f 86/101/130 90/103/132 93/106/135
f 80/98/127 91/110/139 90/103/132
f 87/104/133 91/110/139 81/99/128
f 85/102/131 93/106/135 83/109/138
f 90/103/132 94/111/140 101/118/147
f 92/107/136 95/112/141 89/108/137
f 94/111/140 96/116/145 101/118/147
f 94/111/140 97/113/142 96/116/145
f 99/115/144 98/114/143 92/107/136
f 93/106/135 100/123/152 99/115/144
f 96/116/145 102/119/148 106/117/146
f 97/113/142 103/120/149 102/119/148
f 104/121/150 103/120/149 98/114/143
f 105/122/151 104/121/150 99/115/144
f 106/117/146 105/122/151 101/118/147
