# Blender v2.80 (sub 75) OBJ File: 'map.blend'
# www.blender.org
mtllib level_menu_col.mtl
o Cube.000_Cube.001
v -5.898032 -0.085754 5.898032
v -5.898032 0.085754 5.898032
v -5.898032 -0.085754 -12.506581
v -5.898032 0.085754 -12.506581
v 5.898032 -0.085754 5.898032
v 5.898032 0.085754 5.898032
v 5.898032 -0.085754 -12.506581
v 5.898032 0.085754 -12.506581
vt 0.375000 0.000000
vt 0.625000 0.000000
vt 0.625000 0.250000
vt 0.375000 0.250000
vt 0.625000 0.500000
vt 0.375000 0.500000
vt 0.625000 0.750000
vt 0.375000 0.750000
vt 0.625000 1.000000
vt 0.375000 1.000000
vt 0.125000 0.500000
vt 0.125000 0.750000
vt 0.875000 0.500000
vt 0.875000 0.750000
vn -1.0000 0.0000 0.0000
vn 0.0000 0.0000 -1.0000
vn 1.0000 0.0000 0.0000
vn 0.0000 0.0000 1.0000
vn 0.0000 -1.0000 0.0000
vn 0.0000 1.0000 0.0000
usemtl floor
s off
f 1/1/1 2/2/1 4/3/1 3/4/1
f 3/4/2 4/3/2 8/5/2 7/6/2
f 7/6/3 8/5/3 6/7/3 5/8/3
f 5/8/4 6/7/4 2/9/4 1/10/4
f 3/11/5 7/6/5 5/8/5 1/12/5
f 8/5/6 4/13/6 2/14/6 6/7/6
o Cube.006_Cube.007
v -5.898032 0.085754 -12.506582
v -5.898032 0.085754 -12.335075
v -5.898032 4.512589 -12.506582
v -5.898032 4.512589 -12.335075
v 5.898032 0.085754 -12.506582
v 5.898032 0.085754 -12.335075
v 5.898032 4.512589 -12.506582
v 5.898032 4.512589 -12.335075
vt 0.375000 0.000000
vt 0.625000 0.000000
vt 0.625000 0.250000
vt 0.375000 0.250000
vt 0.625000 0.500000
vt 0.375000 0.500000
vt 0.625000 0.750000
vt 0.375000 0.750000
vt 0.625000 1.000000
vt 0.375000 1.000000
vt 0.125000 0.500000
vt 0.125000 0.750000
vt 0.875000 0.500000
vt 0.875000 0.750000
vn -1.0000 0.0000 0.0000
vn 0.0000 1.0000 0.0000
vn 1.0000 0.0000 0.0000
vn 0.0000 -1.0000 0.0000
vn 0.0000 0.0000 -1.0000
vn 0.0000 0.0000 1.0000
usemtl walls
s off
f 9/15/7 10/16/7 12/17/7 11/18/7
f 11/18/8 12/17/8 16/19/8 15/20/8
f 15/20/9 16/19/9 14/21/9 13/22/9
f 13/22/10 14/21/10 10/23/10 9/24/10
f 11/25/11 15/20/11 13/22/11 9/26/11
f 16/19/12 12/27/12 10/28/12 14/21/12
o Cube.007_Cube.011
v -5.898032 0.085754 5.726525
v -5.898032 0.085754 5.898032
v -5.898032 4.512589 5.726525
v -5.898032 4.512589 5.898033
v 5.898032 0.085754 5.726525
v 5.898032 0.085754 5.898032
v 5.898032 4.512589 5.726525
v 5.898032 4.512589 5.898033
vt 0.375000 0.000000
vt 0.625000 0.000000
vt 0.625000 0.250000
vt 0.375000 0.250000
vt 0.625000 0.500000
vt 0.375000 0.500000
vt 0.625000 0.750000
vt 0.375000 0.750000
vt 0.625000 1.000000
vt 0.375000 1.000000
vt 0.125000 0.500000
vt 0.125000 0.750000
vt 0.875000 0.500000
vt 0.875000 0.750000
vn -1.0000 0.0000 0.0000
vn 0.0000 1.0000 0.0000
vn 1.0000 0.0000 0.0000
vn 0.0000 -1.0000 0.0000
vn 0.0000 0.0000 -1.0000
vn 0.0000 -0.0000 1.0000
usemtl backwall
s off
f 17/29/13 18/30/13 20/31/13 19/32/13
f 19/32/14 20/31/14 24/33/14 23/34/14
f 23/34/15 24/33/15 22/35/15 21/36/15
f 21/36/16 22/35/16 18/37/16 17/38/16
f 19/39/17 23/34/17 21/36/17 17/40/17
f 24/33/18 20/41/18 18/42/18 22/35/18
o Cube.008_Cube.013
v -5.898032 0.085754 5.726526
v -5.726525 0.085754 5.726526
v -5.898032 4.512589 5.726526
v -5.726525 4.512589 5.726526
v -5.898033 0.085754 -12.335075
v -5.726525 0.085754 -12.335075
v -5.898033 4.512589 -12.335075
v -5.726525 4.512589 -12.335075
vt 0.375000 0.000000
vt 0.625000 0.000000
vt 0.625000 0.250000
vt 0.375000 0.250000
vt 0.625000 0.500000
vt 0.375000 0.500000
vt 0.053750 0.366250
vt 0.571250 0.366250
vt 0.571250 0.883750
vt 0.053750 0.883750
vt 0.375000 0.750000
vt 0.625000 0.750000
vt 0.625000 1.000000
vt 0.375000 1.000000
vt 0.125000 0.500000
vt 0.125000 0.750000
vt 0.875000 0.500000
vt 0.875000 0.750000
vn 0.0000 0.0000 1.0000
vn 0.0000 1.0000 0.0000
vn 0.0000 0.0000 -1.0000
vn 0.0000 -1.0000 0.0000
vn -1.0000 0.0000 0.0000
vn 1.0000 0.0000 -0.0000
usemtl walls
s off
f 25/43/19 26/44/19 28/45/19 27/46/19
f 27/46/20 28/45/20 32/47/20 31/48/20
f 31/49/21 32/50/21 30/51/21 29/52/21
f 29/53/22 30/54/22 26/55/22 25/56/22
f 27/57/23 31/48/23 29/53/23 25/58/23
f 32/47/24 28/59/24 26/60/24 30/54/24
o Cube.010_Cube.014
v 5.726525 0.085754 5.726525
v 5.898033 0.085754 5.726525
v 5.726525 4.512589 5.726525
v 5.898033 4.512589 5.726525
v 5.726525 0.085754 -12.335074
v 5.898032 0.085754 -12.335074
v 5.726525 4.512589 -12.335074
v 5.898032 4.512589 -12.335074
vt 0.375000 0.000000
vt 0.625000 0.000000
vt 0.625000 0.250000
vt 0.375000 0.250000
vt 0.625000 0.500000
vt 0.375000 0.500000
vt 0.625000 0.750000
vt 0.375000 0.750000
vt 0.625000 1.000000
vt 0.375000 1.000000
vt 0.125000 0.500000
vt 0.125000 0.750000
vt 0.875000 0.500000
vt 0.875000 0.750000
vn 0.0000 0.0000 1.0000
vn 0.0000 1.0000 0.0000
vn 0.0000 0.0000 -1.0000
vn 0.0000 -1.0000 0.0000
vn -1.0000 0.0000 0.0000
vn 1.0000 0.0000 -0.0000
usemtl walls
s off
f 33/61/25 34/62/25 36/63/25 35/64/25
f 35/64/26 36/63/26 40/65/26 39/66/26
f 39/66/27 40/65/27 38/67/27 37/68/27
f 37/68/28 38/67/28 34/69/28 33/70/28
f 35/71/29 39/66/29 37/68/29 33/72/29
f 40/65/30 36/73/30 34/74/30 38/67/30
